<svg width="36" height="36" viewBox="0 0 36 36" fill="none" xmlns="http://www.w3.org/2000/svg">
<path d="M32.4474 24.6762H11.5119L12.563 22.5352L30.0286 22.5035C30.6193 22.5035 31.1255 22.0816 31.231 21.498L33.6497 7.95937C33.713 7.6043 33.6181 7.23867 33.3861 6.96094C33.2714 6.82425 33.1284 6.71415 32.9669 6.63826C32.8054 6.56238 32.6293 6.52253 32.4509 6.52148L10.2322 6.44766L10.0423 5.55469C9.92279 4.98516 9.40951 4.57031 8.82592 4.57031H3.39427C3.06514 4.57031 2.74948 4.70106 2.51674 4.9338C2.28401 5.16653 2.15326 5.48219 2.15326 5.81133C2.15326 6.14047 2.28401 6.45612 2.51674 6.68886C2.74948 6.92159 3.06514 7.05234 3.39427 7.05234H7.82045L8.65013 10.9969L10.6927 20.8863L8.06302 25.1789C7.92646 25.3632 7.84421 25.5821 7.82557 25.8107C7.80693 26.0394 7.85265 26.2687 7.95756 26.4727C8.16849 26.891 8.59388 27.1547 9.06498 27.1547H11.2728C10.8021 27.7798 10.5479 28.5413 10.5486 29.3238C10.5486 31.3137 12.1658 32.9309 14.1556 32.9309C16.1454 32.9309 17.7626 31.3137 17.7626 29.3238C17.7626 28.5398 17.5025 27.777 17.0384 27.1547H22.7021C22.2314 27.7798 21.9772 28.5413 21.9779 29.3238C21.9779 31.3137 23.5951 32.9309 25.5849 32.9309C27.5747 32.9309 29.1919 31.3137 29.1919 29.3238C29.1919 28.5398 28.9318 27.777 28.4677 27.1547H32.4509C33.1329 27.1547 33.6919 26.5992 33.6919 25.9137C33.6899 25.5849 33.5579 25.2702 33.3247 25.0384C33.0916 24.8066 32.7762 24.6764 32.4474 24.6762ZM10.749 8.89453L30.9919 8.96133L29.0091 20.0637L13.1079 20.0918L10.749 8.89453ZM14.1556 30.4348C13.5439 30.4348 13.0447 29.9355 13.0447 29.3238C13.0447 28.7121 13.5439 28.2129 14.1556 28.2129C14.7673 28.2129 15.2665 28.7121 15.2665 29.3238C15.2665 29.6185 15.1495 29.901 14.9412 30.1094C14.7328 30.3177 14.4502 30.4348 14.1556 30.4348ZM25.5849 30.4348C24.9732 30.4348 24.474 29.9355 24.474 29.3238C24.474 28.7121 24.9732 28.2129 25.5849 28.2129C26.1966 28.2129 26.6958 28.7121 26.6958 29.3238C26.6958 29.6185 26.5788 29.901 26.3705 30.1094C26.1621 30.3177 25.8795 30.4348 25.5849 30.4348Z" fill="currentColor" fill-opacity="0.85"/>
</svg>
